<?xml version="1.0" encoding="utf-8"?>
<!-- Generator: Adobe Illustrator 19.0.0, SVG Export Plug-In . SVG Version: 6.00 Build 0)  -->
<svg version="1.1" id="Layer_1" xmlns="http://www.w3.org/2000/svg" xmlns:xlink="http://www.w3.org/1999/xlink" x="0px" y="0px"
	 viewBox="-443 274.9 59 13.1" style="enable-background:new -443 274.9 59 13.1;" xml:space="preserve">
<style type="text/css">
	.st0{fill:#192E3F;}
	.st1{fill:#2F5568;}
	.st2{fill:#71D19A;}
	.st3{fill:#34485F;}
	.st4{fill:#54BA82;}
	.st5{fill:#253A4F;}
	.st6{fill:#274C63;}
</style>
<g>
	<g id="XMLID_161_">
		<g id="XMLID_119_">
			<g id="XMLID_269_">
				<polygon id="XMLID_323_" class="st0" points="-436.4,284.6 -436.4,282.3 -437.8,278.9 -438.4,281.4 				"/>
				<polygon id="XMLID_297_" class="st1" points="-439.4,276.7 -438.4,281.4 -437.8,278.9 				"/>
				<polygon id="XMLID_136_" class="st2" points="-438.4,281.4 -439.4,276.7 -442.6,276.8 -443,278.3 -441,278.8 -442.1,280.3 				
					"/>
				<polygon id="XMLID_272_" class="st3" points="-441.4,279.4 -443,278.3 -441,278.8 				"/>
			</g>
			<polygon id="XMLID_142_" class="st4" points="-438.4,281.4 -442.1,280.3 -436.4,287 -436.4,284.6 			"/>
		</g>
		<g id="XMLID_194_">
			<g id="XMLID_584_">
				<polygon id="XMLID_608_" class="st5" points="-436.4,284.6 -436.4,282.3 -435,278.9 -434.4,281.4 				"/>
				<polygon id="XMLID_596_" class="st6" points="-433.5,276.7 -434.4,281.4 -435,278.9 				"/>
				<polygon id="XMLID_594_" class="st2" points="-434.4,281.4 -433.5,276.7 -430.2,276.8 -429.9,278.3 -431.8,278.8 -430.8,280.3 
									"/>
				<polygon id="XMLID_586_" class="st3" points="-431.4,279.4 -429.9,278.3 -431.8,278.8 				"/>
			</g>
			<polygon id="XMLID_195_" class="st4" points="-434.4,281.4 -430.8,280.3 -436.4,287 -436.4,284.6 			"/>
		</g>
	</g>
	<g>
		<path d="M-424.4,286.2l-2.4-7.4h1l1.2,3.7c0.3,1,0.6,1.9,0.8,2.8h0c0.2-0.9,0.5-1.8,0.8-2.8l1.3-3.7h1l-2.7,7.4H-424.4z"/>
		<path d="M-415.6,284.7c0,0.6,0,1,0,1.5h-0.9l-0.1-0.9h0c-0.3,0.4-0.8,1-1.8,1c-0.8,0-1.8-0.5-1.8-2.3v-3.1h1v3
			c0,1,0.3,1.7,1.2,1.7c0.6,0,1.1-0.5,1.3-0.9c0.1-0.1,0.1-0.3,0.1-0.5v-3.3h1V284.7z"/>
		<path d="M-413.3,283.7c0,1.3,0.9,1.9,1.8,1.9c0.7,0,1.1-0.1,1.5-0.3l0.2,0.7c-0.3,0.2-0.9,0.3-1.8,0.3c-1.6,0-2.6-1.1-2.6-2.7
			c0-1.6,0.9-2.9,2.5-2.9c1.7,0,2.2,1.5,2.2,2.5c0,0.2,0,0.4,0,0.5H-413.3z M-410.5,283c0-0.6-0.3-1.6-1.3-1.6c-1,0-1.4,0.9-1.5,1.6
			H-410.5z"/>
		<path d="M-408.2,278.7h4v0.8h-3v2.5h2.8v0.8h-2.8v3.4h-1V278.7z"/>
		<path d="M-403,282.5c0-0.6,0-1.2,0-1.7h0.8l0,1h0c0.2-0.7,0.8-1.2,1.5-1.2c0.1,0,0.2,0,0.3,0v0.9c-0.1,0-0.2,0-0.3,0
			c-0.7,0-1.2,0.5-1.3,1.2c0,0.1,0,0.3,0,0.5v2.8h-1V282.5z"/>
		<path d="M-394.6,283.4c0,2-1.4,2.8-2.7,2.8c-1.4,0-2.6-1.1-2.6-2.7c0-1.8,1.2-2.8,2.6-2.8C-395.6,280.7-394.6,281.8-394.6,283.4z
			 M-398.8,283.5c0,1.2,0.7,2,1.6,2c0.9,0,1.6-0.9,1.6-2.1c0-0.9-0.5-2-1.6-2C-398.3,281.4-398.8,282.5-398.8,283.5z"/>
		<path d="M-393.7,282.3c0-0.6,0-1,0-1.4h0.9l0.1,0.9h0c0.3-0.5,0.9-1,1.8-1c0.7,0,1.9,0.4,1.9,2.3v3.2h-1v-3.1
			c0-0.9-0.3-1.6-1.2-1.6c-0.6,0-1.1,0.5-1.3,1c0,0.1-0.1,0.3-0.1,0.5v3.2h-1V282.3z"/>
		<path d="M-386.4,279.3v1.5h1.4v0.7h-1.4v2.9c0,0.7,0.2,1,0.7,1c0.3,0,0.4,0,0.6-0.1l0,0.7c-0.2,0.1-0.5,0.1-0.9,0.1
			c-0.5,0-0.8-0.1-1-0.4c-0.3-0.3-0.4-0.8-0.4-1.4v-2.9h-0.8v-0.7h0.8v-1.3L-386.4,279.3z"/>
	</g>
</g>
</svg>
