<?xml version="1.0" encoding="utf-8"?>
<!-- Generator: Adobe Illustrator 19.0.0, SVG Export Plug-In . SVG Version: 6.00 Build 0)  -->
<svg version="1.1" id="Layer_1" xmlns="http://www.w3.org/2000/svg" xmlns:xlink="http://www.w3.org/1999/xlink" x="0px" y="0px"
	 viewBox="-450 274.9 59 13.1" style="enable-background:new -450 274.9 59 13.1;" xml:space="preserve">
<style type="text/css">
	.st0{fill:#375A72;}
	.st1{fill:#497384;}
	.st2{fill:#71D19A;}
	.st3{fill:#34485F;}
	.st4{fill:#54BA82;}
	.st5{fill:#314C5E;}
	.st6{fill:#40667A;}
	.st7{fill:#697A91;}
</style>
<g>
	<g id="XMLID_161_">
		<g id="XMLID_119_">
			<g id="XMLID_269_">
				<polygon id="XMLID_323_" class="st0" points="-442.7,284.2 -442.7,281.9 -444.1,278.5 -444.7,281 				"/>
				<polygon id="XMLID_297_" class="st1" points="-445.7,276.3 -444.7,281 -444.1,278.5 				"/>
				<polygon id="XMLID_136_" class="st2" points="-444.7,281 -445.7,276.3 -448.9,276.4 -449.3,277.9 -447.3,278.4 -448.4,279.9 
									"/>
				<polygon id="XMLID_272_" class="st3" points="-447.7,279 -449.3,277.9 -447.3,278.4 				"/>
			</g>
			<polygon id="XMLID_142_" class="st4" points="-444.7,281 -448.4,279.9 -442.7,286.6 -442.7,284.2 			"/>
		</g>
		<g id="XMLID_194_">
			<g id="XMLID_584_">
				<polygon id="XMLID_608_" class="st5" points="-442.7,284.2 -442.7,281.9 -441.3,278.5 -440.7,281 				"/>
				<polygon id="XMLID_596_" class="st6" points="-439.8,276.3 -440.7,281 -441.3,278.5 				"/>
				<polygon id="XMLID_594_" class="st2" points="-440.7,281 -439.8,276.3 -436.5,276.4 -436.2,277.9 -438.1,278.4 -437.1,279.9 
									"/>
				<polygon id="XMLID_586_" class="st3" points="-437.7,279 -436.2,277.9 -438.1,278.4 				"/>
			</g>
			<polygon id="XMLID_195_" class="st4" points="-440.7,281 -437.1,279.9 -442.7,286.6 -442.7,284.2 			"/>
		</g>
	</g>
	<g>
		<path class="st7" d="M-430.7,285.8l-2.4-7.4h1l1.2,3.7c0.3,1,0.6,1.9,0.8,2.8l0,0c0.2-0.9,0.5-1.8,0.8-2.8l1.3-3.7h1l-2.7,7.4
			H-430.7z"/>
		<path class="st7" d="M-421.9,284.3c0,0.6,0,1,0,1.5h-0.9l-0.1-0.9l0,0c-0.3,0.4-0.8,1-1.8,1c-0.8,0-1.8-0.5-1.8-2.3v-3.1h1v3
			c0,1,0.3,1.7,1.2,1.7c0.6,0,1.1-0.5,1.3-0.9c0.1-0.1,0.1-0.3,0.1-0.5v-3.3h1V284.3L-421.9,284.3z"/>
		<path class="st7" d="M-419.6,283.3c0,1.3,0.9,1.9,1.8,1.9c0.7,0,1.1-0.1,1.5-0.3l0.2,0.7c-0.3,0.2-0.9,0.3-1.8,0.3
			c-1.6,0-2.6-1.1-2.6-2.7s0.9-2.9,2.5-2.9c1.7,0,2.2,1.5,2.2,2.5c0,0.2,0,0.4,0,0.5H-419.6z M-416.8,282.6c0-0.6-0.3-1.6-1.3-1.6
			s-1.4,0.9-1.5,1.6H-416.8z"/>
		<path class="st7" d="M-414.5,278.3h4v0.8h-3v2.5h2.8v0.8h-2.8v3.4h-1V278.3z"/>
		<path class="st7" d="M-409.3,282.1c0-0.6,0-1.2,0-1.7h0.8v1l0,0c0.2-0.7,0.8-1.2,1.5-1.2c0.1,0,0.2,0,0.3,0v0.9
			c-0.1,0-0.2,0-0.3,0c-0.7,0-1.2,0.5-1.3,1.2c0,0.1,0,0.3,0,0.5v2.8h-1V282.1z"/>
		<path class="st7" d="M-400.9,283c0,2-1.4,2.8-2.7,2.8c-1.4,0-2.6-1.1-2.6-2.7c0-1.8,1.2-2.8,2.6-2.8
			C-401.9,280.3-400.9,281.4-400.9,283z M-405.1,283.1c0,1.2,0.7,2,1.6,2c0.9,0,1.6-0.9,1.6-2.1c0-0.9-0.5-2-1.6-2
			C-404.6,281-405.1,282.1-405.1,283.1z"/>
		<path class="st7" d="M-400,281.9c0-0.6,0-1,0-1.4h0.9l0.1,0.9l0,0c0.3-0.5,0.9-1,1.8-1c0.7,0,1.9,0.4,1.9,2.3v3.2h-1v-3.1
			c0-0.9-0.3-1.6-1.2-1.6c-0.6,0-1.1,0.5-1.3,1c0,0.1-0.1,0.3-0.1,0.5v3.2h-1L-400,281.9L-400,281.9z"/>
		<path class="st7" d="M-392.7,278.9v1.5h1.4v0.7h-1.4v2.9c0,0.7,0.2,1,0.7,1c0.3,0,0.4,0,0.6-0.1v0.7c-0.2,0.1-0.5,0.1-0.9,0.1
			c-0.5,0-0.8-0.1-1-0.4c-0.3-0.3-0.4-0.8-0.4-1.4V281h-0.8v-0.7h0.8V279L-392.7,278.9z"/>
	</g>
</g>
</svg>
